# xmcd
#
# Track frame offsets:
#	150
#	20771
#	43139
#	64201
#	89897
#	104670
#	122889
#	162042
#	178993
#	193482
#
# Disc length: 2917 seconds
#
# Revision: 0
# Processed by: cddbd v1.5.2PL0 Copyright (c) Steve Scherf et al.
# Submitted via: audiograbber 1.83.01
#
DISCID=9f0b630a
DTITLE=Predatory Violence - Marked For Death
DYEAR=2012
DGENRE=Thrash Metal
TTITLE0=Predatory Violence
TTITLE1=Marked For Death
TTITLE2=Mercy Shot
TTITLE3=Pillage And Plunder
TTITLE4=Puppet On A String
TTITLE5=Parental Love
TTITLE6=All This Hate In Me
TTITLE7=Always On The Prowl
TTITLE8=Kickin' Ass
TTITLE9=Devotion
EXTD=
EXTT0=
EXTT1=
EXTT2=
EXTT3=
EXTT4=
EXTT5=
EXTT6=
EXTT7=
EXTT8=
EXTT9=
PLAYORDER=
